<svg t="1745728990663" class="icon" viewBox="0 0 1024 1024" version="1.1" xmlns="http://www.w3.org/2000/svg" p-id="1539" width="200" height="200">
	<path d="M0 0h1024v1024H0z" fill="#FFFFFF" opacity="0" p-id="1540"/>
	<path d="M288 96a192 192 0 1 0 0 384H448a32 32 0 0 0 32-32v-160a192 192 0 0 0-192-192zM448 544h-160a192 192 0 1 0 192 192V576a32 32 0 0 0-32-32zM736 96a192 192 0 0 0-192 192V448a32 32 0 0 0 32 32h160a192 192 0 0 0 0-384z" fill="#111111" p-id="1541"/>
	<path d="M736 544H576a32 32 0 0 0-32 32v160a192 192 0 1 0 192-192z" fill="#000000" p-id="1542"/>
</svg>